<?xml version="1.0" encoding="UTF-8"?><svg xmlns="http://www.w3.org/2000/svg" viewBox="0 0 605 464"><path fill="#EA384D" fill-rule="evenodd" d="M9.555 327.327C22.125 346.834 41 358.323 64.34 358.49c14.123.104 25.02-9.713 38.531-11.752 34.541-5.205 64.074 33.332 81.98 57.6 24.21 32.815 53.635 57.453 96.558 59.314 33.93 1.473 66.598-11.794 97.656-25.534 83.838-37.08 194.238-87.31 221.639-183.395 14.487-50.812-19.6-96.474-64.802-108.914a2703.697 2703.697 0 0 0 23.402-38.277c30.753-51.235-20.517-122.708-79.621-103.6C320.496 55.405 169.46 131.37 34.849 230.842c-15.268 11.283-27.172 23.15-32.4 42.147-4.645 16.88-2.55 39.354 7.106 54.338" opacity=".25"/></svg>