<?xml version="1.0" encoding="UTF-8"?><svg xmlns="http://www.w3.org/2000/svg" viewBox="0 0 516 520"><path fill="#0087C7" fill-rule="evenodd" d="M502.165 232.155c-17.559-41.617-51.4-61.166-91.961-76.387-42.337-15.89-83.455-39.073-129.18-43.535-19.265-1.877-37.314 2.707-56.418-3.095-18.657-5.667-35.615-17.328-46.813-33.378-20.712-29.686-29.09-61.68-67.755-73.131-27.62-8.183-58.964 3.603-78.749 23.36C-11.913 69.126-.373 137.988 7.77 192.2c6.685 44.526 18.94 88.01 35.322 129.92 19.576 50.08 43.394 98.355 70.983 144.503 23.68 39.596 78.246 53.61 121.775 53.374 42.329-.23 83.67-12.703 123.087-28.135 29.07-11.385 57.72-24.573 82.848-43.1 66.501-49.029 92.783-139.822 60.38-216.607" opacity=".11"/></svg>