<?xml version="1.0" encoding="UTF-8"?><svg xmlns="http://www.w3.org/2000/svg" viewBox="0 0 594 412"><path fill="#4A90E2" fill-rule="evenodd" d="M34.547 239.328c19.94-20.532 46.484-35.832 72.536-50.63 5.152-2.927 10.33-5.825 15.45-8.788 3.183-1.842 6.355-3.7 9.492-5.596 1.207-.727 3.048-1.584 4.435-2.177 32.764-18.19 50.266-48.157 69.902-75.196C237.61 53.918 286.112 9.09 349.14 1.928c41.908-4.761 86.586-.486 126.692 10.42 32.139 8.74 62.304 24.132 82.608 46.535 33.062 36.478 46.174 100.697 25.939 143.618-2.923 6.198-16.34 19.452-16.34 25.235-22.522 26.643-53.231 48.229-87.99 63.486a42.684 42.684 0 0 1-.116 4.022c-6.54 86.738-119.902 114.821-208.367 116.642-52.376 1.076-104.362-5.622-155.818-12.972-38.694-5.528-80.168-18.61-101.46-47.738-28.112-38.469-11.228-79.424 20.26-111.848" opacity=".2"/></svg>