<?xml version="1.0" encoding="UTF-8"?><svg xmlns="http://www.w3.org/2000/svg" viewBox="0 0 594 402"><path fill="#52D9DB" fill-rule="evenodd" d="M591.894 239.556c-8.953-49.248-44.766-90.066-94.747-100.026-38.933-7.757-82.247-10.38-121.744-5.844-29.956 3.442-55.213 9.824-82.868 21.714-.52.22-1.027.463-1.544.691 7.52-22.619 16.606-41.812 17.626-66.399C310.734 38.634 272.207 1.28 222.166.04c-26.547-.654-51.106 6.77-74.753 18.091-43.808 20.976-70.451 59.958-92.487 101.573C29.486 167.755 3.642 220.548.292 275.715c-1.596 26.265 3.117 53.385 19.954 74.36 23.978 29.872 61.753 35.067 97.745 39.362 13.796 1.643 27.646 2.764 41.489 3.885 113.813 9.227 237.966 21.538 345.689-25.204 13.833-6.004 27.084-13.056 39.424-21.759 14.34-10.115 25.77-19.41 35.136-34.541 14.043-22.685 16.876-46.35 12.165-72.262" opacity=".3"/></svg>